HIERARCHY
ROOT hip
{
	OFFSET 0.000000 0.000000 0.000000 
	CHANNELS 6 Xposition Yposition Zposition Xrotation Zrotation Yrotation
	JOINT abdomen
	{
		OFFSET 0.000000 3.402643 0.000000 
		CHANNELS 3 Xrotation Zrotation Yrotation
		JOINT chest
		{
			OFFSET 0.000000 8.438565 -0.680529 
			CHANNELS 3 Xrotation Zrotation Yrotation
			JOINT neck
			{
				OFFSET 0.000000 10.207942 -0.272212 
				CHANNELS 3 Xrotation Zrotation Yrotation
				JOINT head
				{
					OFFSET 0.000000 3.130431 0.000000 
					CHANNELS 3 Xrotation Zrotation Yrotation
					End Site
					{
						OFFSET 0.000000 3.130435 0.000000 
					}
				}
			}
			JOINT lCollar
			{
				OFFSET 3.470700 6.669187 -0.816635 
				CHANNELS 3 Yrotation Zrotation Xrotation
				JOINT lShldr
				{
					OFFSET 3.198488 0.000000 0.000000 
					CHANNELS 3 Zrotation Yrotation Xrotation
					JOINT lForeArm
					{
						OFFSET 10.139888 0.000000 0.000000 
						CHANNELS 3 Yrotation Zrotation Xrotation
						JOINT lHand
						{
							OFFSET 8.370511 0.000000 0.000000 
							CHANNELS 3 Zrotation Yrotation Xrotation
							End Site
							{
								OFFSET 4.083176 0.000000 0.000000 
							}
						}
					}
				}
			}
			JOINT rCollar
			{
				OFFSET -3.470700 6.669187 -0.816635 
				CHANNELS 3 Yrotation Zrotation Xrotation
				JOINT rShldr
				{
					OFFSET -3.198488 0.000000 0.000000 
					CHANNELS 3 Zrotation Yrotation Xrotation
					JOINT rForeArm
					{
						OFFSET -10.139888 0.000000 0.000000 
						CHANNELS 3 Yrotation Zrotation Xrotation
						JOINT rHand
						{
							OFFSET -8.370511 0.000000 0.000000 
							CHANNELS 3 Zrotation Yrotation Xrotation
							End Site
							{
								OFFSET -4.083176 0.000000 0.000000 
							}
						}
					}
				}
			}
		}
	}
	JOINT lThigh
	{
		OFFSET 5.308129 -1.633274 1.361059 
		CHANNELS 3 Xrotation Zrotation Yrotation
		JOINT lShin
		{
			OFFSET -2.041588 -20.007561 0.000000 
			CHANNELS 3 Xrotation Zrotation Yrotation
			JOINT lFoot
			{
				OFFSET 0.000000 -19.190928 -1.224953 
				CHANNELS 3 Xrotation Yrotation Zrotation
				End Site
				{
					OFFSET 0.000000 -2.449906 4.627600 
				}
			}
		}
	}
	JOINT rThigh
	{
		OFFSET -5.308129 -1.633274 1.361059 
		CHANNELS 3 Xrotation Zrotation Yrotation
		JOINT rShin
		{
			OFFSET 2.041588 -20.007561 0.000000 
			CHANNELS 3 Xrotation Zrotation Yrotation
			JOINT rFoot
			{
				OFFSET 0.000000 -19.190928 -1.224953 
				CHANNELS 3 Xrotation Yrotation Zrotation
				End Site
				{
					OFFSET 0.000000 -2.449906 4.627600 
				}
			}
		}
	}
}
MOTION
Frames: 17
Frame Time: 0.016667
-0.020253 51.435848 -2.418155 -15.034671 -1.278827 1.553001 17.214827 -2.141863 4.485488 18.246330 10.692023 4.383922 -8.457032 0.000000 0.000000 8.957517 -5.627705 13.277334 -2.812533 -0.096698 -0.019508 -89.119865 -7.040520 -6.467097 -0.806679 -9.529548 6.018892 8.028123 -12.590885 28.231802 2.792995 0.077173 -0.019521 79.667824 8.599433 4.630789 3.159398 9.031832 2.663915 -16.316061 22.484821 24.883123 16.705326 10.066361 0.389245 11.201757 -4.373390 2.166417 3.680871 2.006573 1.379583 11.291601 -0.411939 -23.452917 2.202239 -0.102399 -2.398196 -4.534939 0.499441 -1.876590 
-0.021923 51.441513 -2.412743 -15.034671 -1.278827 1.553001 17.214827 -2.141863 4.485488 18.246330 10.692023 4.383922 -8.457032 0.000000 0.000000 8.957517 -5.627705 13.277334 -2.812533 -0.096698 -0.019508 -89.119705 -7.041860 -6.379218 -0.806304 -9.441132 6.017296 8.025235 -12.498019 28.232750 2.792995 0.077173 -0.019521 79.668259 8.514823 4.548269 3.159398 9.031832 2.663915 -16.316061 22.484821 24.883123 16.705326 10.066361 0.389245 11.201757 -4.373393 2.166417 3.680871 2.006573 1.379583 11.291602 -0.411939 -23.452917 2.202239 -0.102399 -2.398196 -4.534937 0.499446 -1.876588 
-0.027336 51.435848 -2.414412 -15.034671 -1.278827 1.553001 17.214827 -2.141863 4.485488 18.246330 10.692023 4.383922 -8.457032 0.000000 0.000000 8.957517 -5.627705 13.277334 -2.812533 -0.096698 -0.019508 -89.207771 -7.041583 -6.387831 -0.806304 -9.441132 6.017296 8.025235 -12.498019 28.232750 2.792995 0.077173 -0.019521 79.580338 8.504321 4.548347 3.159398 9.031832 2.663915 -16.316061 22.484821 24.883123 16.705326 10.066361 0.389245 11.201757 -4.373393 2.166417 3.680871 2.006573 1.379583 11.291602 -0.411939 -23.452917 2.202239 -0.102399 -2.398195 -4.534938 0.499444 -1.876588 
-0.032749 51.430183 -2.416082 -15.034671 -1.278827 1.553001 17.214827 -2.141863 4.485488 18.246330 10.692023 4.383922 -8.457032 0.000000 0.000000 8.957517 -5.627705 13.277334 -2.812533 -0.096698 -0.019508 -89.295799 -7.051233 -6.386814 -0.806304 -9.441132 6.017296 8.025235 -12.498019 28.232750 2.792995 0.077173 -0.019521 79.492157 8.503443 4.545266 3.159398 9.031832 2.663915 -16.316061 22.484821 24.883123 16.705328 10.066362 0.389244 11.201757 -4.373392 2.166417 3.680869 2.006574 1.379583 11.291602 -0.411939 -23.452917 2.202239 -0.102399 -2.398195 -4.534939 0.499443 -1.876589 
-0.034418 51.430183 -2.410668 -15.034671 -1.278827 1.553001 17.214827 -2.141863 4.485488 18.249172 10.770891 4.314951 -8.457032 0.000000 0.000000 8.958627 -5.625665 13.365734 -2.812533 -0.096698 -0.019508 -89.285866 -7.138151 -6.379347 -0.806679 -9.529548 6.018892 7.943357 -12.600444 28.239918 2.792995 0.077173 -0.019521 79.492157 8.503443 4.545266 3.159398 9.031832 2.663915 -16.316061 22.484821 24.883123 16.714899 10.065367 0.319484 11.218143 -4.364055 2.234653 3.740285 2.068769 1.409579 11.308485 -0.322433 -23.357492 2.192094 -0.102385 -2.388806 -4.534745 0.507053 -1.894562 
-0.036086 51.430183 -2.405260 -15.034671 -1.278827 1.553001 17.214827 -2.141863 4.485488 18.254431 10.859360 4.257412 -8.457032 0.000000 0.000000 8.957455 -5.633109 13.454135 -2.812533 -0.096698 -0.019508 -89.285728 -7.226035 -6.380447 -0.807049 -9.617964 6.020503 7.852575 -12.698218 28.249401 2.792995 0.077173 -0.019521 79.492157 8.503443 4.545266 3.159398 9.031832 2.663915 -16.316061 22.484821 24.883123 16.698685 10.067554 0.219452 11.221913 -4.361719 2.321759 3.815154 2.135500 1.410308 11.314929 -0.235055 -23.262667 2.191318 -0.102740 -2.369293 -4.525557 0.512974 -1.881418 
-0.043170 51.430183 -2.401512 -15.042474 -1.278879 1.465133 17.214827 -2.141863 4.485488 18.162792 10.859632 4.236392 -8.457032 0.000000 0.000000 8.958554 -5.631039 13.542536 -2.812533 -0.096698 -0.019508 -89.275681 -7.313935 -6.294907 -0.898221 -9.607478 6.010662 7.852575 -12.698218 28.249401 2.792995 0.077173 -0.019521 79.412277 8.495396 4.456899 3.159398 9.031832 2.663915 -16.311789 22.486862 24.797478 16.740517 10.171385 0.233732 11.213469 -4.364498 2.419740 3.748317 2.127431 1.316307 11.332138 -0.148215 -23.246485 2.126441 -0.102372 -2.459670 -4.544977 0.510442 -1.882539 
-0.050253 51.430183 -2.397768 -15.040512 -1.278927 1.377264 17.214827 -2.141863 4.485488 18.082796 10.859770 4.226803 -8.457032 0.000000 0.000000 8.959659 -5.628956 13.630935 -2.812533 -0.096698 -0.019508 -89.275414 -7.402920 -6.208138 -0.980292 -9.605500 5.989577 7.852575 -12.698218 28.249401 2.792995 0.077173 -0.019521 79.332405 8.487123 4.368563 3.159398 9.031832 2.663915 -16.321039 22.490297 24.699453 16.773203 10.270855 0.245136 11.213368 -4.371998 2.506826 3.682294 2.084957 1.210106 11.338604 -0.060879 -23.220860 2.062206 -0.092418 -2.559805 -4.575083 0.521196 -1.867416 
-0.059006 51.424515 -2.388611 -15.040512 -1.278927 1.377264 17.214827 -2.141863 4.485488 18.085936 10.948372 4.157838 -8.457032 0.000000 0.000000 8.960766 -5.626859 13.719337 -2.812533 -0.096698 -0.019508 -89.353523 -7.490354 -6.120833 -0.980292 -9.605500 5.989577 7.852575 -12.698218 28.249401 2.792995 0.077173 -0.019521 79.242561 8.490752 4.286612 3.159398 9.031832 2.663915 -16.311789 22.486862 24.797478 16.773203 10.270855 0.245136 11.213368 -4.371998 2.506826 3.682293 2.084958 1.210106 11.338604 -0.060879 -23.220860 2.062207 -0.092422 -2.559805 -4.652125 0.556188 -1.958688 
-0.067752 51.418850 -2.379453 -15.040512 -1.278927 1.377264 17.214827 -2.141863 4.485488 18.090057 11.027100 4.100329 -8.457032 0.000000 0.000000 8.959535 -5.634233 13.807735 -2.812533 -0.096698 -0.019508 -89.431686 -7.577565 -6.033300 -0.980292 -9.605500 5.989577 7.852575 -12.698218 28.249401 2.792995 0.077173 -0.019521 79.152855 8.482738 4.196882 3.159398 9.031832 2.663915 -16.316061 22.484821 24.883123 16.773203 10.270859 0.245137 11.213368 -4.371999 2.506826 3.682293 2.084958 1.210106 11.338604 -0.060878 -23.220860 2.062207 -0.092421 -2.559805 -4.748429 0.580179 -2.044094 
-0.074840 51.418850 -2.375710 -15.011231 -1.366841 1.289394 17.214827 -2.141863 4.485488 18.092459 11.028292 4.010333 -8.457032 0.000000 0.000000 8.960633 -5.632106 13.896133 -2.812533 -0.096698 -0.019508 -89.421684 -7.665304 -5.947593 -1.076326 -9.687022 6.069541 7.854152 -12.698364 28.160063 2.792995 0.077173 -0.019521 79.073006 8.473764 4.108627 3.159398 9.031832 2.663915 -16.316061 22.484821 24.883123 16.722147 10.347288 0.101537 11.127799 -4.382611 2.600466 3.742404 2.069087 1.399401 11.358299 0.036902 -23.291655 1.951375 -0.092894 -2.476020 -4.622808 0.676369 -2.098366 
-0.081923 51.418850 -2.371967 -14.981477 -1.444995 1.201529 17.214827 -2.141863 4.485488 18.085096 11.029457 3.920337 -8.457032 0.000000 0.000000 8.962699 -5.630204 13.974817 -2.812533 -0.096698 -0.019508 -89.421471 -7.754070 -5.860598 -1.162421 -9.767795 6.149513 7.855748 -12.698534 28.070734 2.792995 0.077173 -0.019521 78.992882 8.474152 4.017121 3.159398 9.031832 2.663915 -16.316061 22.484821 24.883123 16.685814 10.417202 -0.054107 11.033870 -4.413458 2.693281 3.807393 2.043246 1.595602 11.386233 0.136049 -23.352148 1.850698 -0.092662 -2.401636 -4.535681 0.811978 -2.136085 
-0.087336 51.418850 -2.373637 -14.981477 -1.444995 1.201529 17.214827 -2.141863 4.485488 18.093311 11.117656 3.882008 -8.457032 0.000000 0.000000 8.963803 -5.628052 14.063215 -2.812533 -0.096698 -0.019508 -89.499550 -7.929568 -5.675735 -1.254467 -9.855357 6.131632 7.763753 -12.704090 27.989790 2.792995 0.077173 -0.019521 78.992882 8.474152 4.017121 3.159398 9.031832 2.663915 -16.413244 22.568069 24.880791 16.782854 10.427242 -0.069826 11.001542 -4.472898 2.768794 3.787994 2.010161 1.460975 11.386233 0.136050 -23.352148 1.850698 -0.092662 -2.401636 -4.447570 0.827651 -2.150638 
-0.092744 51.418850 -2.375304 -14.981477 -1.444995 1.201529 17.214827 -2.141863 4.485488 18.098804 11.196240 3.834113 -8.457032 0.000000 0.000000 8.964913 -5.625887 14.150657 -2.812533 -0.096698 -0.019508 -89.577744 -8.114272 -5.500247 -1.344862 -9.943088 6.123379 7.673966 -12.708654 27.901646 2.792995 0.077173 -0.019521 78.992882 8.474152 4.017121 3.159398 9.031832 2.663915 -16.506527 22.654150 24.886879 16.887308 10.425234 -0.077576 10.972398 -4.548976 2.843034 3.742517 1.953200 1.349418 11.386232 0.136050 -23.352148 1.850698 -0.092662 -2.401636 -4.359685 0.851120 -2.140713 
-0.099832 51.418850 -2.371562 -14.989024 -1.445040 1.113420 17.214827 -2.141863 4.485488 18.098804 11.196240 3.834113 -8.457032 0.000000 0.000000 8.964913 -5.625887 14.150657 -2.812533 -0.096698 -0.019508 -89.567665 -8.289769 -5.415072 -1.432255 -10.024063 6.193704 7.673966 -12.708654 27.901646 2.792995 0.077173 -0.019521 78.901047 8.557231 3.939514 3.159398 9.031832 2.663915 -16.510624 22.652489 24.972538 16.887308 10.425234 -0.077576 10.974481 -4.550004 2.920923 3.716047 1.991755 1.260122 11.305943 0.203945 -23.255938 1.850699 -0.092640 -2.401636 -4.446568 0.836639 -2.221014 
-0.106915 51.418850 -2.367819 -14.986806 -1.445081 1.025557 17.214827 -2.141863 4.485488 18.098804 11.196240 3.834113 -8.457032 0.000000 0.000000 8.964913 -5.625887 14.150657 -2.812533 -0.096698 -0.019508 -89.557579 -8.465296 -5.329956 -1.519453 -10.105263 6.264012 7.673966 -12.708654 27.901646 2.792995 0.077173 -0.019521 78.799164 8.638865 3.850617 3.159398 9.031832 2.663915 -16.514753 22.650883 25.054445 16.887308 10.425237 -0.077576 10.983620 -4.559514 2.997352 3.716242 2.059263 1.180092 11.224136 0.261795 -23.171488 1.850316 -0.092621 -2.391880 -4.533012 0.833655 -2.307100 
-0.112327 51.418850 -2.369488 -14.984590 -1.445119 0.937694 17.214827 -2.141863 4.485488 18.100939 11.197372 3.744109 -8.457032 0.000000 0.000000 8.953846 -5.633174 14.240011 -2.812533 -0.096698 -0.019508 -89.626183 -8.638154 -5.242858 -1.609702 -10.104725 6.254058 7.666782 -12.704635 27.812346 2.792995 0.077173 -0.019521 78.711174 8.627497 3.850768 3.159398 9.031832 2.663915 -16.514753 22.650883 25.054445 16.933691 10.546000 0.049600 10.839178 -4.617016 2.916740 3.698477 2.028031 1.293636 11.214008 0.261738 -23.162205 1.857009 -0.092524 -2.313461 -4.464791 0.936647 -2.273968 
